<svg width="32" height="32" viewBox="0 0 32 32" fill="none" xmlns="http://www.w3.org/2000/svg">
<g id="Frame" clip-path="url(#clip0_42_570)">
<path id="Vector" d="M27.2891 10.3107H28.7995C29.5538 10.3107 30.2773 10.6104 30.8108 11.1438C31.3442 11.6772 31.6438 12.4008 31.6438 13.1551V18.844C31.6438 19.5984 31.3442 20.3219 30.8108 20.8554C30.2773 21.3888 29.5538 21.6884 28.7995 21.6884H27.2891C26.9426 24.4382 25.6045 26.9668 23.5257 28.7999C21.4471 30.633 18.7709 31.6443 15.9995 31.644V28.7996C18.2626 28.7996 20.4331 27.9005 22.0334 26.3002C23.6337 24.6999 24.5328 22.5294 24.5328 20.2663V11.7329C24.5328 9.46972 23.6337 7.29924 22.0334 5.69893C20.4331 4.09862 18.2626 3.19957 15.9995 3.19957C13.7362 3.19957 11.5657 4.09862 9.96545 5.69893C8.36514 7.29924 7.46609 9.46972 7.46609 11.7329V21.6884H3.19942C2.44503 21.6884 1.72153 21.3888 1.1881 20.8554C0.654662 20.3219 0.35498 19.5984 0.35498 18.844V13.1551C0.35498 12.4008 0.654662 11.6772 1.1881 11.1438C1.72153 10.6104 2.44503 10.3107 3.19942 10.3107H4.70982C5.05435 7.55944 6.39169 5.0287 8.47053 3.19394C10.5494 1.35918 13.2267 0.34668 15.9995 0.34668C18.7721 0.34668 21.4495 1.35918 23.5283 3.19394C25.6071 5.0287 26.9445 7.55944 27.2891 10.3107ZM3.19942 13.1551V18.844H4.62165V13.1551H3.19942ZM27.3772 13.1551V18.844H28.7995V13.1551H27.3772ZM9.9692 21.3826L11.4768 18.9649C12.8334 19.8115 14.4003 20.2605 15.9995 20.2605C17.5985 20.2605 19.1655 19.8115 20.5221 18.9649L22.0296 21.3826C20.221 22.5119 18.1316 23.1106 15.9995 23.1106C13.8672 23.1106 11.7778 22.5119 9.9692 21.3826Z" fill="#FF8A00"/>
</g>
<defs>
<clipPath id="clip0_42_570">
<rect width="32" height="32" fill="white"/>
</clipPath>
</defs>
</svg>
