<svg width="30" height="30" viewBox="0 0 30 30" fill="none" xmlns="http://www.w3.org/2000/svg">
<g id="3 - Bold / search">
<path id="search-Bold" d="M27.1328 25.3662L21.459 19.6925C22.8878 17.8825 23.749 15.6038 23.749 13.125C23.749 7.26625 18.9828 2.5 13.124 2.5C7.26527 2.5 2.49902 7.26625 2.49902 13.125C2.49902 18.9837 7.26527 23.75 13.124 23.75C15.604 23.75 17.8815 22.89 19.6915 21.46L25.3653 27.1338C25.609 27.3775 25.929 27.5 26.249 27.5C26.569 27.5 26.889 27.3775 27.1328 27.1338C27.6215 26.645 27.6215 25.855 27.1328 25.3662ZM4.99902 13.125C4.99902 8.645 8.64402 5 13.124 5C17.604 5 21.249 8.645 21.249 13.125C21.249 17.605 17.604 21.25 13.124 21.25C8.64402 21.25 4.99902 17.605 4.99902 13.125Z" fill="#FF8A00"/>
</g>
</svg>
